<?xml version="1.0" encoding="utf-8"?>
<!-- Generator: Adobe Illustrator 18.0.0, SVG Export Plug-In . SVG Version: 6.00 Build 0)  -->
<!DOCTYPE svg PUBLIC "-//W3C//DTD SVG 1.1//EN" "http://www.w3.org/Graphics/SVG/1.1/DTD/svg11.dtd">
<svg version="1.1" id="Layer_1" xmlns="http://www.w3.org/2000/svg" xmlns:xlink="http://www.w3.org/1999/xlink" x="0px" y="0px"
	 viewBox="0 0 22.8 26" enable-background="new 0 0 22.8 26" xml:space="preserve">
<g id="_x36_R7WX0_3_" opacity="0.8">
	<g>
		<path fill="#A6A8AC" d="M13.3,0C13.8,0.3,14,0.8,14,1.4c0,1,0,2,0,3c-0.7,0.2-1.3,0.5-2,0.7c0-1,0-2,0-3.1C8.7,2,5.4,2,2,2
			C2,9.3,2,16.6,2,24c3.3,0,6.6,0,9.9,0c0-1,0-2,0-3.1c0.7,0.2,1.3,0.5,2,0.7c0,1,0,2,0,3c0,0.6-0.2,1.1-0.7,1.4C8.9,26,4.4,26,0,26
			C0,17.3,0,8.7,0,0C4.4,0,8.9,0,13.3,0z"/>
		<path fill="#A6A8AC" d="M9.2,13c0-3.7,3-6.8,6.8-6.8c3.8,0,6.8,3,6.8,6.8c0,3.7-3.1,6.8-6.8,6.8C12.3,19.8,9.2,16.8,9.2,13z
			 M15,12c-1,0-2,0-3,0c0,0.7,0,1.3,0,2c1,0,2,0,3,0c0,1,0,2,0,2.9c0.7,0,1.3,0,2,0c0-1,0-2,0-3c1,0,2,0,3,0c0-0.7,0-1.3,0-2
			c-1,0-2,0-3,0c0-1,0-2,0-2.9c-0.7,0-1.3,0-2,0C15,10,15,11,15,12z"/>
	</g>
</g>
</svg>
